<svg width="17" height="16" viewBox="0 0 17 16" fill="none" xmlns="http://www.w3.org/2000/svg">
<path d="M5.55267 10.7807C4.11894 9.34417 3.01634 7.61178 2.322 5.70468C1.94 4.66202 2.29 3.51668 3.07533 2.73135L3.56133 2.24602C3.69199 2.11509 3.84719 2.01123 4.01804 1.94036C4.18889 1.86949 4.37203 1.83301 4.557 1.83301C4.74196 1.83301 4.92511 1.86949 5.09596 1.94036C5.26681 2.01123 5.42201 2.11509 5.55267 2.24602L6.69067 3.38402C6.82159 3.51467 6.92546 3.66987 6.99633 3.84072C7.06719 4.01157 7.10367 4.19472 7.10367 4.37968C7.10367 4.56465 7.06719 4.7478 6.99633 4.91865C6.92546 5.08949 6.82159 5.24469 6.69067 5.37535L6.41067 5.65535C6.29859 5.7674 6.20968 5.90043 6.14903 6.04685C6.08837 6.19327 6.05715 6.3502 6.05715 6.50868C6.05715 6.66717 6.08837 6.8241 6.14903 6.97051C6.20968 7.11693 6.29859 7.24996 6.41067 7.36202L8.97067 9.92268C9.08272 10.0348 9.21575 10.1237 9.36217 10.1843C9.50859 10.245 9.66552 10.2762 9.824 10.2762C9.98248 10.2762 10.1394 10.245 10.2858 10.1843C10.4322 10.1237 10.5653 10.0348 10.6773 9.92268L10.958 9.64268C11.0887 9.51176 11.2439 9.40789 11.4147 9.33702C11.5856 9.26615 11.7687 9.22967 11.9537 9.22967C12.1386 9.22967 12.3218 9.26615 12.4926 9.33702C12.6635 9.40789 12.8187 9.51176 12.9493 9.64268L14.0873 10.7807C14.2183 10.9113 14.3221 11.0665 14.393 11.2374C14.4639 11.4082 14.5003 11.5914 14.5003 11.7763C14.5003 11.9613 14.4639 12.1445 14.393 12.3153C14.3221 12.4862 14.2183 12.6414 14.0873 12.772L13.602 13.2573C12.8167 14.0433 11.6713 14.3933 10.6287 14.0113C8.72157 13.317 6.98918 12.2144 5.55267 10.7807Z" stroke="white" stroke-width="1.5" stroke-linejoin="round"/>
</svg>
