<svg width="14" height="16" viewBox="0 0 14 16" fill="none" xmlns="http://www.w3.org/2000/svg">
<path d="M12.5 7.33338C12.5 6.37671 12.4987 5.70934 12.431 5.20577C12.3734 4.7776 12.2745 4.52541 12.127 4.34575L12.0605 4.27283C11.8763 4.0884 11.6169 3.96818 11.1276 3.90239C10.624 3.83469 9.95667 3.83338 9 3.83338H7C6.04334 3.83338 5.37597 3.83469 4.8724 3.90239C4.44422 3.95997 4.19204 4.05889 4.01237 4.20642L3.93945 4.27283C3.75503 4.45705 3.63481 4.71652 3.56901 5.20577C3.50131 5.70934 3.5 6.37671 3.5 7.33338V10.6667C3.5 11.6234 3.50131 12.2907 3.56901 12.7943C3.63481 13.2836 3.75503 13.543 3.93945 13.7273L4.01237 13.7937C4.19204 13.9412 4.44422 14.0401 4.8724 14.0977C5.37597 14.1654 6.04334 14.1667 7 14.1667H9C9.95667 14.1667 10.624 14.1654 11.1276 14.0977C11.6169 14.0319 11.8763 13.9117 12.0605 13.7273L12.127 13.6543C12.2745 13.4747 12.3734 13.2225 12.431 12.7943C12.4987 12.2907 12.5 11.6234 12.5 10.6667V7.33338ZM13.5 10.6667C13.5 11.5952 13.5013 12.3421 13.4225 12.9278C13.3469 13.4904 13.1901 13.9699 12.8398 14.3581L12.7676 14.4343C12.3665 14.8357 11.861 15.0085 11.2611 15.0892C10.6753 15.168 9.92847 15.1667 9 15.1667H7C6.07153 15.1667 5.32466 15.168 4.73893 15.0892C4.1763 15.0136 3.69685 14.8568 3.3086 14.5066L3.23242 14.4343C2.83099 14.0332 2.65816 13.5278 2.57748 12.9278C2.49872 12.3421 2.5 11.5952 2.5 10.6667V7.33338C2.5 6.4049 2.49872 5.65803 2.57748 5.07231C2.65816 4.47233 2.83099 3.96688 3.23242 3.5658L3.3086 3.49353C3.69685 3.1433 4.1763 2.98652 4.73893 2.91085C5.32466 2.83209 6.07153 2.83338 7 2.83338H9C9.92847 2.83338 10.6753 2.83209 11.2611 2.91085C11.861 2.99154 12.3665 3.16437 12.7676 3.5658L12.8398 3.64197C13.1901 4.03022 13.3469 4.50967 13.4225 5.07231C13.5013 5.65803 13.5 6.4049 13.5 7.33338V10.6667Z" fill="#5C5C5C"/>
<path d="M0.5 10.6667V6.66671C0.5 5.42385 0.499023 4.44111 0.602214 3.67387C0.707339 2.89242 0.928709 2.25979 1.42773 1.76111C1.92669 1.26258 2.55959 1.04081 3.34115 0.935588C4.10828 0.832345 5.09055 0.833374 6.33333 0.833374H9C9.66304 0.833374 10.2987 1.09696 10.7676 1.5658C11.2364 2.03464 11.5 2.67033 11.5 3.33337H10.5C10.5 2.93555 10.3419 2.55413 10.0605 2.27283C9.77924 1.99152 9.39783 1.83337 9 1.83337H6.33333C5.06244 1.83337 4.15957 1.83494 3.47461 1.92712C2.80412 2.01739 2.41713 2.18609 2.13477 2.46814C1.85261 2.75006 1.68331 3.13662 1.5931 3.80733C1.50096 4.49242 1.5 5.39557 1.5 6.66671V10.6667C1.5 11.0645 1.65815 11.4459 1.93945 11.7273C2.22076 12.0086 2.60218 12.1667 3 12.1667V13.1667C2.33696 13.1667 1.70126 12.9031 1.23242 12.4343C0.763581 11.9654 0.5 11.3297 0.5 10.6667Z" fill="#5C5C5C"/>
</svg>
